<svg width="512" height="512" viewBox="0 0 512 512" fill="none" xmlns="http://www.w3.org/2000/svg">
  <!-- Background circle -->
  <circle cx="256" cy="256" r="240" fill="#10B981" stroke="#059669" stroke-width="16"/>
  
  <!-- Solar panel grid -->
  <rect x="120" y="120" width="272" height="272" rx="16" fill="#FFFFFF" stroke="#059669" stroke-width="8"/>
  
  <!-- Panel cells -->
  <rect x="140" y="140" width="56" height="56" fill="#10B981"/>
  <rect x="210" y="140" width="56" height="56" fill="#10B981"/>
  <rect x="280" y="140" width="56" height="56" fill="#10B981"/>
  <rect x="350" y="140" width="56" height="56" fill="#10B981"/>
  
  <rect x="140" y="210" width="56" height="56" fill="#10B981"/>
  <rect x="210" y="210" width="56" height="56" fill="#10B981"/>
  <rect x="280" y="210" width="56" height="56" fill="#10B981"/>
  <rect x="350" y="210" width="56" height="56" fill="#10B981"/>
  
  <rect x="140" y="280" width="56" height="56" fill="#10B981"/>
  <rect x="210" y="280" width="56" height="56" fill="#10B981"/>
  <rect x="280" y="280" width="56" height="56" fill="#10B981"/>
  <rect x="350" y="280" width="56" height="56" fill="#10B981"/>
  
  <rect x="140" y="350" width="56" height="56" fill="#10B981"/>
  <rect x="210" y="350" width="56" height="56" fill="#10B981"/>
  <rect x="280" y="350" width="56" height="56" fill="#10B981"/>
  <rect x="350" y="350" width="56" height="56" fill="#10B981"/>
  
  <!-- Scan lines -->
  <rect x="120" y="200" width="272" height="4" fill="#EF4444" opacity="0.8"/>
  <rect x="120" y="300" width="272" height="4" fill="#EF4444" opacity="0.8"/>
  
  <!-- QR code symbol -->
  <rect x="200" y="200" width="32" height="32" fill="#1F2937"/>
  <rect x="200" y="200" width="8" height="8" fill="#FFFFFF"/>
  <rect x="224" y="200" width="8" height="8" fill="#FFFFFF"/>
  <rect x="200" y="224" width="8" height="8" fill="#FFFFFF"/>
  <rect x="224" y="224" width="8" height="8" fill="#FFFFFF"/>
  <rect x="208" y="208" width="16" height="16" fill="#1F2937"/>
</svg>
